<svg width="135" height="18" viewBox="0 0 135 18" fill="none" xmlns="http://www.w3.org/2000/svg">
<g clip-path="url(#clip0_424_1386)">
<path d="M36.8535 0.580904V0.730296L34.8493 2.34373V17.9701H33.8622L22.5249 5.74986V16.2073L24.6488 17.8207V17.9701H19.3242V17.8207L21.3284 16.2073V3.53886L19.1148 0.700417V0.551025H23.3027L33.2041 11.2774L33.6528 11.9347V2.34373L31.5289 0.730296V0.580904H36.8535ZM50.4941 0.580904V0.730296L52.5283 2.40349L48.3404 9.21576L44.0926 2.25409L45.7678 0.760174V0.610782H38.08V0.760174L39.7551 2.25409L44.9302 10.62V16.2372L43.255 17.8506V18H50.7634V17.8506L49.0882 16.2372V10.4109L53.9641 2.49312L55.9982 0.760174V0.610782H50.4642L50.4941 0.580904ZM64.2245 0.580904V0.730296L65.8996 2.34373V16.2073L64.2245 17.8207V17.9701H78.4334V12.7115H78.3437L74.6942 16.8945H70.0875V9.63406H74.4848L76.6087 11.8749H76.6984V6.55658H76.6087L74.4848 8.55843H70.0875V1.62665H74.4848L78.1343 5.80962H78.224V0.580904H64.2245ZM93.1509 0.580904V0.730296L95.0953 2.49312L90.7279 15.0719L86.3605 2.22422L88.0357 0.730296V0.580904H80.4376V0.730296L82.1128 2.22422L87.7665 17.9402H90.7578L96.2619 2.43336L98.3559 0.700417V0.551025H93.1509V0.580904ZM100.061 0.580904V0.730296L101.736 2.34373V16.2073L100.061 17.8207V17.9701H114.27V12.7115H114.18L110.531 16.8945H105.924V9.63406H110.321L112.445 11.8749H112.535V6.55658H112.445L110.321 8.55843H105.924V1.62665H110.321L113.971 5.80962H114.06V0.580904H100.061ZM7.59805 0.580904L2.09395 16.0878L0 17.8207V17.9701H5.20496V17.8207L3.26058 16.0579L7.65788 3.47911L12.0253 16.3268L10.3501 17.8207V17.9701H17.9482V17.8207L16.273 16.3268L10.5894 0.580904H7.59805ZM128.299 5.45108C128.299 2.46324 127.073 1.56689 124.829 1.56689H123.334V9.36515H123.902C126.475 9.36515 128.269 8.7377 128.269 5.48096M127.581 17.9402V17.7909L128.748 16.5957L124.949 10.3511H123.364V16.1774L125.039 17.7909V17.9402H117.53V17.7909L119.206 16.1774V2.34373L117.53 0.730296V0.580904H125.158C129.526 0.580904 132.248 2.16446 132.248 5.39132C132.248 8.61819 130.932 9.03649 128.628 9.78345L132.906 16.2372L135 17.8207V17.9701H127.611L127.581 17.9402Z" fill="#C0AE66"/>
</g>
<defs>
<clipPath id="clip0_424_1386">
<rect width="135" height="17.449" fill="transparent" transform="translate(0 0.550781)"/>
</clipPath>
</defs>
</svg>
